<?xml version="1.0" encoding="UTF-8"?>
<svg xmlns="http://www.w3.org/2000/svg" viewBox="0 0 244.05 118.69">
  <defs>
    <style>.cls-1{fill:#0a569f;}.cls-2{fill:#10456e;}.cls-3{fill:#11456e;}.cls-4{fill:#13446d;}.cls-5{fill:#133c5f;}.cls-6{fill:#0f395c;}.cls-7{fill:#255ea9;}</style>
  </defs>
  <g id="Layer_2" data-name="Layer 2">
    <g id="Layer_1-2" data-name="Layer 1">
      <path class="cls-1" d="M39.84,32.46q-8,16.95-16,33.91c-1,2.2-1.93,4.46-2.89,6.69C15.89,84.15,10.73,95.21,5.7,106.33,4,110,2.64,113.9,1.12,117.7l.09-.15-1.07.1C.08,106.09-.09,94.53.06,83c0-2.52,1.09-5.09,2-7.51,6.4-17.13,13-34.18,19.26-51.37,1.8-4.95,3.54-8.21,9.57-10,1.73-.5,3.45-1,5.19-1.49,4.59-1.17,9.19-2.29,13.79-3.42-.66,1.67-1.29,3.35-2,5Q44.31,22.63,40.71,31Z"></path>
      <path class="cls-2" d="M39.84,32.46,40.71,31c1.68-1.79,3.67-3.38,5-5.41,2.87-4.43,6.38-8.67,6.14-14.44q11.91,24,23.79,47.94c2.1,4.25,5.43,8.5,5.65,12.87.2,4.16-2.9,8.5-4.59,12.75-1.47,3.72-3,7.43-4.91,12.15-4-8-7.46-15.13-11-22.24q-10-20.28-19.92-40.57A14,14,0,0,0,39.84,32.46Z"></path>
      <path class="cls-3" d="M24.32,72.21l25.57-10c-2.37,6.44-2.17,12.83-6.71,17.09C31.12,90.63,18.7,101.58,6.43,112.68A25.36,25.36,0,0,1,7.68,108c5-10.44,10.13-20.82,15.14-31.26A34.9,34.9,0,0,0,24.32,72.21Z"></path>
      <path class="cls-4" d="M49.87,9.2c-4.6,1.13-9.2,2.25-13.79,3.42-1.74.44-3.46,1-5.19,1.49L24.52,0,49.9,8.11c0,.37,0,.75-.07,1.13Z"></path>
      <path class="cls-5" d="M24.33,72.2a35.54,35.54,0,0,1-1.5,4.58C17.82,87.21,12.69,97.59,7.69,108a25.58,25.58,0,0,0-1.25,4.64c-2,1.7-4.36,4.32-6.31,6,1.51-3.79,3.33-8.58,5-12.3,5-11.11,10.19-22.18,15.3-33.26Z"></path>
      <path class="cls-6" d="M51.84,11.17c.24,5.77-3.27,10-6.14,14.44-1.32,2-3.31,3.62-5,5.41q3.59-8.4,7.17-16.81c.7-1.66,1.33-3.34,2-5l0,0,1.05-.09Z"></path>
      <path class="cls-5" d="M.14,117.65l1.07-.1c-.18.36-.91.78-1.08,1.14C.13,118.39.14,118,.14,117.65Z"></path>
      <path class="cls-1" d="M50.88,9.15l-1.05.09c0-.38.05-.76.07-1.13Z"></path>
      <path class="cls-7" d="M150.31,23.93l-12.24,10C134.6,29.74,129.81,28,124.4,28c-11.32,0-20.91,9.08-20.91,23.25,0,12,7.76,23.26,20.4,23.26a17.08,17.08,0,0,0,14.9-7.75l13.26,9.89c-5.71,8.37-16.22,12.55-26.12,12.55-22.64,0-39-14.89-39-37.95,0-22.84,16.22-37.94,39-37.94C135.42,13.32,144.91,17,150.31,23.93Z"></path>
      <path class="cls-7" d="M177.24,87.37H161.33V15.15h15.91Z"></path>
      <path class="cls-7" d="M193.15,15.15h49.06V29.84H209.06V43.31h31.32V58H209.06V72.69h35V87.37h-50.9Z"></path>
    </g>
  </g>
</svg>
