<svg xmlns="http://www.w3.org/2000/svg" xmlns:xlink="http://www.w3.org/1999/xlink" id="Layer_1" data-name="Layer 1" viewBox="0 0 1920 1080"><defs><style>      .cls-1 {        fill: url(#linear-gradient);      }      .cls-2, .cls-3 {        fill: #fff;      }      .cls-3 {        isolation: isolate;        opacity: .31;      }      .cls-4 {        fill: url(#linear-gradient-3);      }      .cls-5 {        fill: url(#linear-gradient-4);      }      .cls-6 {        fill: url(#linear-gradient-2);      }    </style><linearGradient id="linear-gradient" x1="793.2" y1="-2195" x2="323.22" y2="-2182.45" gradientTransform="translate(0 -1809.29) scale(1 -1)" gradientUnits="userSpaceOnUse"><stop offset="0" stop-color="#010101"></stop><stop offset=".02" stop-color="#1f1e1f"></stop><stop offset=".18" stop-color="#6b6d6f"></stop><stop offset=".34" stop-color="#949699"></stop><stop offset=".49" stop-color="#b9babc"></stop><stop offset=".64" stop-color="#d6d8d8"></stop><stop offset=".78" stop-color="#ebebec"></stop><stop offset=".9" stop-color="#f7f8f8"></stop><stop offset="1" stop-color="#fff"></stop></linearGradient><linearGradient id="linear-gradient-2" x1="674.19" y1="1484.41" x2="300.35" y2="1306.14" gradientTransform="translate(0 -738)" xlink:href="#linear-gradient"></linearGradient><linearGradient id="linear-gradient-3" x1="-74.44" y1="1135.64" x2="339.21" y2="1203.14" gradientTransform="translate(0 -738)" xlink:href="#linear-gradient"></linearGradient><linearGradient id="linear-gradient-4" x1="792.81" y1="-2209.52" x2="322.83" y2="-2196.97" xlink:href="#linear-gradient"></linearGradient></defs><g><path class="cls-1" d="m420.14,367.48l-47.27,55.32-4.61-3.95c-16.3-13.91-37.1-21.56-58.62-21.56-4.86,0-9.66.38-14.31,1.14-.02,0-.02-.02-.04-.02-11.06-6.24-21.39-14.37-32.98-19.7-17.02-7.84-36.91-9.3-54.9-4.08-10.04,2.94-19.47,7.95-27.63,14.52-.17.15-.27.23-.27.23,29.8-39.36,77.05-64.87,130.13-64.83,70.94.02,110.49,42.93,110.49,42.93Z"></path><path class="cls-6" d="m420.14,607.85l-4.61,3.93c-29.47,25.15-67.05,39.02-105.86,39.02-74.09,0-136.81-49.63-156.59-117.4l-.02-.02c-5.43-22.07-6.87-30.48-7.25-46.1-.4-16.42.27-32.95-1.8-49.25-1.59-12.68-4.97-25.41-11.29-36.44,10.53-.32,21.07,1.59,30.78,5.6.97.4,1.92.82,2.87,1.27.19.08.36.17.55.27,14.52,6.91,26.68,18.69,34.03,33,13.15,25.54,10.99,57.16,25.73,81.81,6.93,16.04,18.39,29.66,32.76,39.27,14.35,9.62,31.71,13.51,50.18,15.24,32.51,3.04,63.22-25.51,63.22-25.51l47.29,55.32Z"></path><path class="cls-4" d="m312.35,405.66c-4,.32-7.99.8-11.96,1.48-15.66,2.62-30.88,8.03-44.01,16.74-2.62,1.71-5.14,3.57-7.59,5.58-17.42,14.35-29.36,36.08-29.36,58.6h-.13c.06,12.58,2.68,24.58,7.42,35.47-6.55-10.95-9.77-23.29-12.47-35.87l-.99-4.69c-2.94-14.18-5.69-28.47-12.26-41.24-7.38-14.31-19.51-26.08-34.05-33-.17-.11-.36-.17-.55-.27-.97-.44-1.92-.87-2.87-1.25,4.38-6.72,9.83-12.73,16.02-17.84h.02c8.22-6.7,17.73-11.77,27.9-14.75,17.99-5.22,37.88-3.76,54.9,4.08,11.58,5.35,21.92,13.49,32.98,19.7.02,0,.02.02.04.02,5.39,3.09,10.97,5.67,16.97,7.25Z"></path><path class="cls-3" d="m300.39,407.12c-15.66,2.62-30.88,8.03-44.01,16.74-2.62,1.73-5.14,3.59-7.57,5.6-17.44,14.35-29.38,36.06-29.38,58.6h-.13c.06,12.58,2.71,24.58,7.44,35.47h0c-14.75-24.65-12.6-56.27-25.73-81.81-7.36-14.31-19.51-26.08-34.03-33-.19-.11-.36-.19-.55-.27-.95-.44-1.9-.87-2.87-1.27,0,0,24.6-21.14,65.47-7.42,27.56,9.28,55.87,8.71,71.36,7.36Z"></path><path class="cls-5" d="m394.73,397.22l-21.84,25.58-4.61-3.95c-16.3-13.91-37.1-21.56-58.62-21.56-4.86,0-9.66.38-14.31,1.14-.02,0-.02-.02-.04-.02-11.06-6.24-21.39-14.37-32.98-19.7-17.02-7.84-36.91-9.3-54.9-4.08-10.04,2.94-19.47,7.95-27.63,14.52,5.05-4.33,80.35-66.65,173.31-17.61,16.02,8.46,29.78,17.12,41.6,25.68Z"></path></g><g><path class="cls-2" d="m432.14,328.06h1.23c39.32,0,71.17,31.88,71.17,71.17v248.35h-72.4v-319.53h0Z"></path><path class="cls-2" d="m596.77,404.96l32.51,121.4c3.7,14.23,7.63,30.84,10.51,43.69h1.4c2.9-12.89,6.17-29.61,9.28-43.54l26.93-121.54h75.42l-54.22,167.96c-27.9,81.11-48.98,122.09-75.99,148.41-24.37,23.17-51.15,32.43-67.41,34.73l-17.16-61.36c10.04-2.45,21.54-7.72,32.6-15.03,10.72-6.74,21.54-18.24,27.86-29.83,2.39-3.93,3.93-7.46,3.93-10.78,0-2.85-.68-6.3-2.87-11.39l-82.23-222.73h79.46v.02Z"></path><path class="cls-2" d="m768.96,481.12c0-29.11-.99-54.01-1.99-76.16h62.61l3.45,31.96h1.4c10.59-16.74,34.18-36.97,70.12-36.97,48.49,0,80.16,34.18,80.16,100.43v147.21h-72.4v-139.68c0-28.01-9.24-48.87-34.03-48.87-17.76,0-29.07,12.41-34.07,26.49-1.88,4.78-2.85,12.22-2.85,19.76v142.3h-72.4v-166.46h.02Z"></path><path class="cls-2" d="m1096.73,399.23v5.73h52.25v52.78h-52.25v94.81c0,28.92,8.6,40.46,28.18,40.46,8.71,0,15.45-.87,20.82-2.03l.57,55.34c-9.51,3.21-26.25,5.81-46.12,5.81-22.7,0-41.87-7.25-53.88-19.36-13.8-13.85-20.78-35.62-20.78-71.15v-103.87h-31.14v-52.78h31.14v-76.9h0c39.34,0,71.21,31.88,71.21,71.17Z"></path><path class="cls-2" d="m1220.81,550.2c1.82,33.25,30.02,47.86,63.29,47.86,23.4,0,42.8-3.59,60.6-9.66l9.66,49.65c-22.51,9.2-51.39,14.08-81.49,14.08-77.37,0-121.31-46.59-121.31-122.24,0-67.64,39.66-129.92,114.72-129.92,70.69,0,100.62,55.15,100.62,119.18,0,14.42-1.18,25.07-2.47,31.05h-143.61Zm79.29-49.82c.15-22.05-8.01-51.09-37.82-51.09s-40.27,29.7-41.87,51.09h79.69Z"></path><path class="cls-2" d="m1552.94,642.07c-11.52,5.37-34.05,10.06-59.72,10.06-73.31,0-120.32-46.36-120.32-123.47,0-72.19,47.2-128.31,130.51-128.31,18.56,0,38.03,3.57,50.94,8.65l-10.78,54.49c-7.99-3.38-19.66-6.72-36.8-6.72-37.31,0-60.71,28.73-60.5,69.19,0,44.35,26.51,69.04,61.13,69.04,15.41,0,27.46-2.73,37.69-7.06l7.84,54.14Z"></path><path class="cls-2" d="m1567.77,328.06h1.23c39.32,0,71.17,31.88,71.17,71.17v33.8h.99c7.25-9.96,16.13-17.65,26.97-23.7,10.59-5.9,23.93-9.39,37.33-9.39,47.05,0,78.08,34.77,78.08,104.44v143.19h-72.4v-137.5c0-29.38-9.03-50.99-34.48-50.99-17.35,0-28.79,10.89-34.01,25.54-1.63,4.35-2.47,11.52-2.47,17.02v145.96h-72.4l-.02-319.55h0Z"></path></g></svg>